<?xml version="1.0" encoding="UTF-8"?>
<svg version="1.1" xmlns="http://www.w3.org/2000/svg" width="96" height="96">
<path d="M0 0 C10.26111216 7.71551656 13.36150749 22.77609553 15.08984375 34.8359375 C15.32675881 39.27163365 15.32070992 43.70699804 15.33984375 48.1484375 C15.36046875 49.33373047 15.38109375 50.51902344 15.40234375 51.74023438 C15.44530396 61.4223926 14.44433918 69.24986286 7.6171875 76.4609375 C3.64423308 80.03761258 -0.42097309 80.0803751 -5.53125 80.19921875 C-7.91015625 79.8359375 -7.91015625 79.8359375 -10.734375 78.2890625 C-14.65744444 76.4940049 -17.03052496 76.77779489 -21.28515625 77.2734375 C-29.96876347 78.09767657 -35.79782215 77.36775291 -42.91015625 71.8359375 C-45.47265625 69.5859375 -45.47265625 69.5859375 -47.91015625 66.8359375 C-48.379375 66.32933594 -48.84859375 65.82273437 -49.33203125 65.30078125 C-54.01543833 59.31496603 -54.01867391 52.0748183 -53.27490234 44.79833984 C-52.36726925 39.91510367 -49.7501646 35.82547305 -46.91015625 31.8359375 C-47.86921875 30.44375 -47.86921875 30.44375 -48.84765625 29.0234375 C-51.82720628 24.41867837 -52.42837375 21.2772213 -51.91015625 15.8359375 C-49.06818118 7.56233719 -44.23493702 1.7085166 -36.53515625 -2.4453125 C-23.78836689 -8.31554444 -12.0502458 -7.34350358 0 0 Z " fill="#05120A" transform="translate(65.91015625,9.1640625)"/>
<path d="M0 0 C8.37414829 5.08430432 10.58884862 12.78854608 13.19140625 21.7578125 C14.69896884 28.31518263 14.70382438 34.92898507 14.75 41.625 C14.76401855 43.04582886 14.76401855 43.04582886 14.77832031 44.49536133 C14.74913433 50.86407914 14.4744706 56.44985837 10.8125 61.875 C8.5 63.375 8.5 63.375 4.9375 63.375 C1.5 62.375 1.5 62.375 -0.375 60.5 C-1.5 58.375 -1.5 58.375 -2.5 55.375 C-3.10585938 55.7359375 -3.71171875 56.096875 -4.3359375 56.46875 C-10.43871285 59.84874866 -15.50432839 61.68214971 -22.5 60.375 C-27.81565158 57.71717421 -31.60236008 54.06791975 -33.5 48.375 C-34.17084913 44.08309022 -34.37322985 40.15970334 -32.4296875 36.1875 C-27.07478728 29.29878413 -18.03851295 24.62563196 -9.59375 22.71875 C-7.125 22.4375 -7.125 22.4375 -3.5 22.375 C-4.3604139 18.04270285 -4.3604139 18.04270285 -6.5 14.375 C-11.17373371 13.76320224 -15.09687905 13.78418585 -19.125 16.375 C-22.97556256 18.65681485 -25.09988087 18.89266107 -29.5 18.375 C-31.5 16.375 -31.5 16.375 -31.875 12.5625 C-31.77028304 9.66184009 -31.48078872 8.33745069 -30.125 5.6875 C-21.71904566 -1.71774549 -10.62700333 -4.75207507 0 0 Z " fill="#F8F9F9" transform="translate(56.5,15.625)"/>
<path d="M0 0 C0 2.64 0 5.28 0 8 C-7.28571429 11.57142857 -7.28571429 11.57142857 -12 10 C-12.33 9.01 -12.66 8.02 -13 7 C-5.875 -0.31756757 -5.875 -0.31756757 0 0 Z " fill="#111111" transform="translate(53,50)"/>
<path d="M0 0 C1.65 0.33 3.3 0.66 5 1 C4.75 4.375 4.75 4.375 4 8 C2 9.1875 2 9.1875 0 10 C-0.80528889 12.05000871 -0.80528889 12.05000871 -1 14 C-1.33 13.01 -1.66 12.02 -2 11 C-1.15234375 9.31640625 -1.15234375 9.31640625 0.0625 7.5625 C1.22189611 5.77913453 1.22189611 5.77913453 2 4 C1.41744763 1.5756566 1.41744763 1.5756566 0 0 Z " fill="#074826" transform="translate(17,37)"/>
<path d="M0 0 C3.8665284 3.222107 4.88059018 6.14922412 6 11 C1.9957657 7.50912907 0.37328935 5.35048061 0 0 Z " fill="#074C25" transform="translate(70,15)"/>
</svg>
